Coordinates
version=1
nRows=32
nColumns=22
inDegrees=yes

Units are S.I. units (second, meters, Newtons, ...)
If the header above contains a line with 'inDegrees', this indicates whether rotational values are in degrees (yes) or radians (no).

endheader
time	pelvis_tilt	pelvis_list	pelvis_rotation	pelvis_tx	pelvis_ty	pelvis_tz	hip_flexion_r	hip_adduction_r	hip_rotation_r	knee_angle_r	ankle_angle_r	subtalar_angle_r	hip_flexion_l	hip_adduction_l	hip_rotation_l	knee_angle_l	ankle_angle_l	subtalar_angle_l	lumbar_extension	lumbar_bending	lumbar_rotation
      0.01000000	     -7.96690009	     -2.72976190	     -7.38591817	     -1.03723994	      0.88626133	     -0.58064673	     15.28772988	      1.43948445	      7.16823509	    -16.49524785	     11.69401308	     -0.68152148	     13.64629922	     -7.07210440	     -6.16790506	    -20.67864186	     15.96107027	      4.06116598	      0.30778764	      1.08205182	     10.62073707
      0.02000000	     -7.97193385	     -2.55639706	     -7.27702730	     -1.03667912	      0.88601400	     -0.58093545	     15.07376248	      1.17654942	      6.96936731	    -16.13130475	     11.82815265	     -0.68232752	     13.57703640	     -6.83632731	     -6.11118682	    -20.54239559	     15.95747340	      4.07552559	      0.44716795	      0.95702106	     10.60308565
      0.03000000	     -7.96728064	     -2.38583507	     -7.14727382	     -1.03600328	      0.88576454	     -0.58123149	     14.79589561	      0.90987591	      6.75003566	    -15.69662580	     11.95892635	     -0.68496460	     13.47524604	     -6.59755997	     -6.04922331	    -20.37495995	     15.96984560	      4.06258817	      0.59263038	      0.84400514	     10.58406948
      0.04000000	     -7.96832897	     -2.21290767	     -7.01372325	     -1.03526681	      0.88550321	     -0.58150287	     14.49888527	      0.64600055	      6.54276783	    -15.23321386	     12.09095185	     -0.71843615	     13.36649283	     -6.35732429	     -5.98457928	    -20.19168205	     15.98721360	      4.03688866	      0.75440599	      0.73633360	     10.57357177
      0.05000000	     -7.97874273	     -2.04916683	     -6.87665234	     -1.03451281	      0.88525776	     -0.58172394	     14.20208113	      0.40389476	      6.35462175	    -14.76491557	     12.20745801	     -0.79067802	     13.26058853	     -6.12978344	     -5.90624568	    -20.00013302	     16.00269435	      4.00839698	      0.92718477	      0.64008702	     10.58151512
      0.06000000	     -7.98498526	     -1.91132333	     -6.74981076	     -1.03375360	      0.88507234	     -0.58190766	     13.90561303	      0.19905697	      6.18264477	    -14.31284088	     12.29856219	     -0.90740332	     13.13905553	     -5.93144060	     -5.82597509	    -19.79607971	     16.01286558	      3.96942984	      1.08656439	      0.57903215	     10.59634068
      0.07000000	     -7.98962451	     -1.81182033	     -6.62993579	     -1.03299911	      0.88496112	     -0.58201702	     13.61835593	      0.04767947	      6.03607922	    -13.88917125	     12.35549326	     -1.06365862	     13.01081458	     -5.78117384	     -5.75075657	    -19.59138772	     16.02572241	      3.91804150	      1.23258967	      0.55582090	     10.62301450
      0.08000000	     -8.05441908	     -1.73704220	     -6.53298020	     -1.03234389	      0.88482252	     -0.58205831	     13.42796057	     -0.05781074	      5.95968218	    -13.51337835	     12.37807575	     -1.12881301	     12.97118420	     -5.67399847	     -5.67611280	    -19.43327286	     16.05921507	      3.90273511	      1.42827092	      0.56411303	     10.68455191
      0.09000000	     -8.04895004	     -1.71824557	     -6.41628966	     -1.03166498	      0.88489873	     -0.58210990	     13.16265485	     -0.12007785	      5.80504311	    -13.14540564	     12.32368729	     -1.25487733	     12.84393479	     -5.61067845	     -5.54415089	    -19.25447415	     16.02471618	      3.84544475	      1.52431828	      0.62104408	     10.74797769
      0.10000000	     -8.07075484	     -1.72992659	     -6.32497695	     -1.03102458	      0.88498785	     -0.58210740	     12.95119202	     -0.14045576	      5.69771112	    -12.81831846	     12.27070363	     -1.33033175	     12.75051341	     -5.59469193	     -5.46357899	    -19.09252197	     16.03242819	      3.78109460	      1.63532382	      0.71633721	     10.80243058
      0.11000000	     -8.13486880	     -1.74559819	     -6.24147656	     -1.03047432	      0.88505860	     -0.58208778	     12.81479701	     -0.15007043	      5.63261664	    -12.53124631	     12.20470299	     -1.33263192	     12.72034058	     -5.58960570	     -5.37400694	    -18.95420958	     16.02766921	      3.75323859	      1.77655625	      0.81558019	     10.86363231
      0.12000000	     -8.17210612	     -1.80620611	     -6.12710992	     -1.02991904	      0.88521550	     -0.58208471	     12.64041055	     -0.12399065	      5.51492671	    -12.23771217	     12.08675337	     -1.30930251	     12.67842721	     -5.62902062	     -5.26637694	    -18.84412463	     16.01088634	      3.70694454	      1.87246049	      0.95144994	     10.88979097
      0.13000000	     -8.17932186	     -1.88806623	     -5.99040075	     -1.02939520	      0.88542408	     -0.58212902	     12.44168834	     -0.08649306	      5.35090551	    -11.95880084	     11.97894774	     -1.24171316	     12.62368934	     -5.68544585	     -5.15795989	    -18.76131089	     16.01638837	      3.63524380	      1.91436807	      1.10594271	     10.88947876
      0.14000000	     -8.23203325	     -1.94633153	     -5.85518034	     -1.02893230	      0.88556191	     -0.58214722	     12.30694856	     -0.06309471	      5.24850030	    -11.69795095	     11.87434467	     -1.19250896	     12.62383737	     -5.72525494	     -5.05656265	    -18.67529722	     15.98881997	      3.60635439	      2.00118145	      1.22849207	     10.87299838
      0.15000000	     -8.26689844	     -2.01883668	     -5.68955662	     -1.02849879	      0.88570154	     -0.58221276	     12.15518942	     -0.03208449	      5.07877698	    -11.44466598	     11.77644277	     -1.13284469	     12.62835796	     -5.77615724	     -4.94829377	    -18.61948859	     15.98129879	      3.57794134	      2.05223551	      1.36048171	     10.81939347
      0.16000000	     -8.30075511	     -2.07639352	     -5.51345497	     -1.02812697	      0.88580417	     -0.58228531	     12.01816338	     -0.01577858	      4.90198244	    -11.21361009	     11.69924921	     -1.07890491	     12.64666398	     -5.81277961	     -4.84074352	    -18.57688630	     15.97299135	      3.55927798	      2.08979412	      1.46669918	     10.75339799
      0.17000000	     -8.33676106	     -2.12136585	     -5.32858723	     -1.02780903	      0.88586223	     -0.58237197	     11.89262285	     -0.01147957	      4.70800727	    -10.99316361	     11.63984786	     -1.03585253	     12.68194292	     -5.83644210	     -4.73083959	    -18.54849073	     15.96584607	      3.55010133	      2.11757550	      1.55274764	     10.67876499
      0.18000000	     -8.36663560	     -2.16688207	     -5.12943021	     -1.02755571	      0.88588598	     -0.58246541	     11.77148339	     -0.00609119	      4.48175498	    -10.78909654	     11.59277906	     -0.99651397	     12.72786189	     -5.85869080	     -4.58686903	    -18.53730104	     15.96601073	      3.54744734	      2.12170553	      1.62745048	     10.60402716
      0.19000000	     -8.40397152	     -2.19788367	     -4.92566287	     -1.02732448	      0.88585749	     -0.58255947	     11.65829416	     -0.01401280	      4.25929297	    -10.58197249	     11.56095201	     -0.97671833	     12.79361070	     -5.86737113	     -4.44959690	    -18.54035913	     15.96477924	      3.55236237	      2.12893982	      1.67920278	     10.51401545
      0.20000000	     -8.44547326	     -2.21554622	     -4.71643843	     -1.02711107	      0.88578711	     -0.58265107	     11.54579135	     -0.03458191	      4.04550028	    -10.36553319	     11.54441608	     -0.97282318	     12.88058663	     -5.86423252	     -4.32463532	    -18.56784274	     15.96924960	      3.56057227	      2.13509885	      1.70778972	     10.40248064
      0.21000000	     -8.48189831	     -2.25986604	     -4.48906858	     -1.02690808	      0.88570523	     -0.58277087	     11.43420318	     -0.02909818	      3.77723990	    -10.16778182	     11.52366121	     -0.97567430	     12.97042442	     -5.88014553	     -4.13048653	    -18.60635907	     15.98194002	      3.57031413	      2.12581322	      1.75721460	     10.30688902
      0.22000000	     -8.52693369	     -2.28457480	     -4.27026620	     -1.02667299	      0.88559180	     -0.58286771	     11.31927238	     -0.04081728	      3.55154731	     -9.94727274	     11.52216845	     -0.98287614	     13.07688922	     -5.88191467	     -3.99043763	    -18.66273752	     16.00236597	      3.57778080	      2.12903541	      1.77776238	     10.19228243
      0.23000000	     -8.56534321	     -2.34969187	     -4.02978503	     -1.02643019	      0.88549030	     -0.58300267	     11.20569238	     -0.01343905	      3.26866334	     -9.75236820	     11.49689891	     -0.99460445	     13.17901157	     -5.91432288	     -3.75851983	    -18.72201355	     16.02808533	      3.58402186	      2.11693418	      1.83680311	     10.09266137
      0.24000000	     -8.60683630	     -2.40689153	     -3.80056599	     -1.02613019	      0.88538430	     -0.58312952	     11.08809554	      0.00806978	      3.02641379	     -9.54900592	     11.48196440	     -1.00528343	     13.28111311	     -5.94040643	     -3.56296658	    -18.78470073	     16.06080806	      3.58691010	      2.11315024	      1.88271696	      9.99525174
      0.25000000	     -8.65265763	     -2.45643567	     -3.58424924	     -1.02576555	      0.88527451	     -0.58324005	     10.96843398	      0.02452072	      2.82444436	     -9.33767439	     11.48647959	     -1.01149138	     13.37766766	     -5.96146121	     -3.40176934	    -18.84125341	     16.10024166	      3.58758144	      2.12108731	      1.91498521	      9.90089570
      0.26000000	     -8.69478518	     -2.52639994	     -3.36811718	     -1.02537187	      0.88518093	     -0.58337044	     10.85927495	      0.06193455	      2.60271835	     -9.15756428	     11.47186027	     -1.01462149	     13.45964103	     -5.99872921	     -3.20294938	    -18.88381827	     16.14037746	      3.58540202	      2.12427615	      1.96673454	      9.83153465
      0.27000000	     -8.73508260	     -2.59117585	     -3.17131444	     -1.02497518	      0.88509542	     -0.58350925	     10.76990645	      0.09616988	      2.40957010	     -9.01487881	     11.45803614	     -1.01215441	     13.53323347	     -6.03079685	     -3.02397803	    -18.92226963	     16.17712119	      3.57941706	      2.12186735	      2.01329444	      9.79199063
      0.28000000	     -8.78548038	     -2.63562609	     -2.99845920	     -1.02451817	      0.88499510	     -0.58362282	     10.69374015	      0.11329855	      2.26455486	     -8.87735485	     11.47428112	     -1.00568605	     13.59533704	     -6.04783386	     -2.89035890	    -18.93436383	     16.22075581	      3.57448209	      2.14285007	      2.03279407	      9.76621924
      0.29000000	     -8.83323849	     -2.68084746	     -2.83296450	     -1.02406705	      0.88490066	     -0.58376912	     10.63765314	      0.13048782	      2.11206429	     -8.77922746	     11.48433053	     -0.99443792	     13.64814064	     -6.06268898	     -2.75320692	    -18.93722092	     16.25652127	      3.56763723	      2.15669284	      2.05473699	      9.76462652
      0.30000000	     -8.88121998	     -2.71162036	     -2.68663262	     -1.02360359	      0.88480080	     -0.58391164	     10.59659991	      0.13536511	      1.98939519	     -8.70527433	     11.50952523	     -0.98001986	     13.69033573	     -6.06551805	     -2.64383501	    -18.92829958	     16.29197792	      3.56050953	      2.17219800	      2.05801822	      9.78420638
      0.31000000	     -8.92570339	     -2.73340578	     -2.55251536	     -1.02311882	      0.88470514	     -0.58407332	     10.56501998	      0.13082724	      1.88050512	     -8.65496590	     11.54201947	     -0.96357337	     13.71989503	     -6.05920080	     -2.55364572	    -18.91104376	     16.32248141	      3.55311889	      2.18604566	      2.05145475	      9.82637909
      0.32000000	     -8.96556146	     -2.74771376	     -2.42861084	     -1.02260867	      0.88461069	     -0.58424930	     10.53493248	      0.11833348	      1.78251748	     -8.61673959	     11.58265395	     -0.94615181	     13.73850435	     -6.04573934	     -2.47803586	    -18.88959245	     16.35228001	      3.54540103	      2.19650808	      2.03364944	      9.88349739
